<svg id="Group_4" data-name="Group 4" xmlns="http://www.w3.org/2000/svg" width="494.283" height="73.739" viewBox="0 0 494.283 73.739">
  <path id="Path_32" data-name="Path 32" d="M359.109,566.7v29.586h-5.828V566.7h-13v71.727h13V607.944h5.828v30.484h13V566.7Z" transform="translate(-340.278 -565.581)" fill="#212322"/>
  <path id="Path_20" data-name="Path 20" d="M387.724,599.606c0-24.656,6.725-34.07,18.382-34.07s18.382,9.414,18.382,34.07v5.379c0,24.657-6.723,34.069-18.382,34.069s-18.382-9.412-18.382-34.069Zm14.8,23.669c0,2.958,1.434,4.572,3.586,4.572s3.588-1.614,3.588-4.572V580.867c0-2.96-1.435-4.574-3.588-4.574s-3.586,1.614-3.586,4.574Z" transform="translate(-351.242 -565.314)" fill="#212322"/>
  <path id="Path_21" data-name="Path 21" d="M454.855,566.7c10.94,0,20.354,7.174,20.354,22.414v1.795c0,15.242-9.414,22.414-20.175,22.414v25.105H441.583V566.7Zm.179,35.863h.9c3.585,0,5.828-2.062,5.828-7.172V584.631c0-5.11-2.243-7.17-5.828-7.17h-.9Z" transform="translate(-363.681 -565.577)" fill="#212322"/>
  <path id="Path_22" data-name="Path 22" d="M513.827,566.7v11.655H503.065v17.93h9.417v11.656h-9.417v18.828h10.762v11.656H489.616V566.7Z" transform="translate(-374.788 -565.57)" fill="#212322"/>
  <path id="Path_23" data-name="Path 23" d="M548.064,566.41h24.212v11.655H561.514V596h8.967v11.657h-8.967v30.484h-13.45Z" transform="translate(-388.284 -565.505)" fill="#212322"/>
  <path id="Path_24" data-name="Path 24" d="M581.524,599.314c0-24.657,6.725-34.071,18.383-34.071s18.382,9.413,18.382,34.071v5.378c0,24.657-6.725,34.069-18.382,34.069s-18.383-9.413-18.383-34.069Zm14.8,23.668c0,2.958,1.434,4.572,3.585,4.572s3.587-1.614,3.587-4.572V580.576c0-2.96-1.433-4.573-3.587-4.573s-3.585,1.613-3.585,4.573Z" transform="translate(-396.02 -565.244)" fill="#212322"/>
  <path id="Path_25" data-name="Path 25" d="M648.136,566.411c11.3,0,19.91,7.89,19.91,21.786,0,8.967-2.692,13.986-7.623,18.829l6.725,30.215v.9h-13l-5.11-27.256h-1.345l.627,27.256h-13.45V566.411Zm.18,34.966h.448c3.14,0,5.83-2.422,5.83-7.172v-9.864c0-4.75-2.69-7.172-5.83-7.172h-.448Z" transform="translate(-408.348 -565.513)" fill="#212322"/>
  <path id="Path_26" data-name="Path 26" d="M726.152,566.41v56.932c0,8.966-4.035,15.243-13.45,15.243a65.61,65.61,0,0,1-10.761-.9l.9-11.207h6.635c2.6,0,3.678-1.165,3.678-3.676v-44.74H702.838V566.41Z" transform="translate(-423.842 -565.505)" fill="#212322"/>
  <path id="Path_27" data-name="Path 27" d="M772.315,566.41v53.8c0,11.654-6.277,18.827-16.59,18.827s-16.589-7.172-16.589-18.827v-53.8h13.449V623.7c0,2.958.989,4.573,3.14,4.573s3.139-1.615,3.139-4.573V566.41Z" transform="translate(-432.438 -565.505)" fill="#212322"/>
  <path id="Path_28" data-name="Path 28" d="M798.927,613.21a10.451,10.451,0,0,1,.539,4.035v6.635c0,2.78,1.255,4.573,3.317,4.573,2.153,0,3.409-1.793,3.409-4.932,0-5.738-3.766-11.027-7.712-16.228l-2.6-3.407c-6.1-7.981-8.608-13.269-8.608-21.16,0-10.31,6.186-17.483,16.32-17.483,10.313,0,15.961,7.174,15.961,18.56a17.5,17.5,0,0,0,.538,5.2v.9h-12.1a12.126,12.126,0,0,1-.539-4.034v-6.008c0-2.869-1.345-4.3-3.226-4.3-1.974,0-3.5,1.435-3.5,5.022,0,5.289,2.778,9.056,6.724,14.076l2.69,3.408c6.188,7.8,9.507,13.986,9.507,22.773,0,10.938-6.189,17.932-15.961,17.932-10.939,0-16.5-7.083-16.5-19.636a15.932,15.932,0,0,0-.537-5.02v-.9Z" transform="translate(-443.417 -565.24)" fill="#212322"/>
  <path id="Path_29" data-name="Path 29" d="M863.44,566.41v11.655h-8.968v60.071H841.02V578.065h-8.966V566.41Z" transform="translate(-453.916 -565.505)" fill="#212322"/>
  <rect id="Rectangle_707" data-name="Rectangle 707" width="13.45" height="71.726" transform="translate(413.438 0.895)" fill="#212322"/>
  <path id="Path_30" data-name="Path 30" d="M919.184,565.244c10.761,0,16.5,8.518,16.5,21.965a22.068,22.068,0,0,0,.445,4.933v.9H922.682a14.662,14.662,0,0,1-.449-4.034v-8.878c0-2.509-1.075-4.123-3.229-4.123s-3.495,1.614-3.495,4.573v42.407c0,2.958,1.345,4.572,3.495,4.572s3.229-1.614,3.229-4.123v-8.876a14.676,14.676,0,0,1,.449-4.035H936.13v.9a20.228,20.228,0,0,0-.445,5.38c0,13.447-5.74,21.965-16.5,21.965-11.657,0-18.473-9.413-18.473-34.069v-5.379c0-24.657,6.816-34.07,18.473-34.07" transform="translate(-469.778 -565.244)" fill="#212322"/>
  <path id="Path_31" data-name="Path 31" d="M975.815,566.41v11.655H965.054V596h9.417v11.657h-9.417V626.48h10.761v11.656H951.6V566.41Z" transform="translate(-481.532 -565.505)" fill="#212322"/>
</svg>
