<svg xmlns="http://www.w3.org/2000/svg" width="618.344" height="92.247" viewBox="0 0 618.344 92.247">
  <g id="Group_6795" data-name="Group 6795" transform="translate(-60.581 -6.062)">
    <path id="Path_32" data-name="Path 32" d="M363.836,566.7v37.012h-7.291V566.7H340.278v89.729h16.267V618.3h7.291v38.135H380.1V566.7Z" transform="translate(-279.697 -559.238)" fill="#212322"/>
    <path id="Path_20" data-name="Path 20" d="M387.724,608.157c0-30.845,8.413-42.621,23-42.621s23,11.776,23,42.621v6.729c0,30.846-8.411,42.62-23,42.62s-23-11.774-23-42.62Zm18.51,29.609c0,3.7,1.794,5.72,4.485,5.72s4.488-2.018,4.488-5.72V584.715c0-3.7-1.795-5.722-4.488-5.722s-4.485,2.019-4.485,5.722Z" transform="translate(-281.505 -559.197)" fill="#212322"/>
    <path id="Path_21" data-name="Path 21" d="M458.186,566.7c13.686,0,25.463,8.974,25.463,28.039v2.245c0,19.068-11.776,28.039-25.239,28.039v31.406H441.583V566.7Zm.224,44.864h1.123c4.485,0,7.291-2.58,7.291-8.972V589.132c0-6.392-2.806-8.97-7.291-8.97H458.41Z" transform="translate(-283.548 -559.234)" fill="#212322"/>
    <path id="Path_22" data-name="Path 22" d="M519.9,566.7v14.581H506.441v22.431h11.781V618.3H506.441v23.554H519.9v14.581H489.616V566.7Z" transform="translate(-285.386 -559.225)" fill="#212322"/>
    <path id="Path_23" data-name="Path 23" d="M548.064,566.41h30.289v14.58H564.89v22.431h11.218V618H564.89v38.134H548.064Z" transform="translate(-287.601 -559.216)" fill="#212322"/>
    <path id="Path_24" data-name="Path 24" d="M581.524,607.866c0-30.846,8.414-42.622,23-42.622s23,11.776,23,42.622v6.728c0,30.846-8.412,42.621-23,42.621s-23-11.775-23-42.621Zm18.511,29.608c0,3.7,1.793,5.72,4.485,5.72s4.488-2.019,4.488-5.72v-53.05c0-3.7-1.793-5.721-4.488-5.721s-4.485,2.017-4.485,5.721Z" transform="translate(-288.88 -559.182)" fill="#212322"/>
    <path id="Path_25" data-name="Path 25" d="M651.467,566.411c14.137,0,24.907,9.87,24.907,27.254,0,11.218-3.367,17.5-9.536,23.554l8.413,37.8v1.121H658.983l-6.393-34.1h-1.683l.784,34.1H634.866V566.411Zm.225,43.742h.561c3.928,0,7.294-3.03,7.294-8.972v-12.34c0-5.943-3.365-8.972-7.294-8.972h-.561Z" transform="translate(-290.913 -559.226)" fill="#212322"/>
    <path id="Path_26" data-name="Path 26" d="M732.229,566.41v71.221c0,11.216-5.048,19.069-16.826,19.069a82.066,82.066,0,0,1-13.462-1.124l1.123-14.019h8.3c3.253,0,4.6-1.457,4.6-4.6V580.99h-12.9V566.41Z" transform="translate(-293.461 -559.216)" fill="#212322"/>
    <path id="Path_27" data-name="Path 27" d="M780.643,566.41v67.3c0,14.58-7.853,23.552-20.754,23.552s-20.753-8.973-20.753-23.552v-67.3h16.825v71.671c0,3.7,1.237,5.721,3.927,5.721s3.926-2.02,3.926-5.721V566.41Z" transform="translate(-294.879 -559.216)" fill="#212322"/>
    <path id="Path_28" data-name="Path 28" d="M802.011,625.25a13.076,13.076,0,0,1,.675,5.047v8.3c0,3.478,1.57,5.722,4.149,5.722,2.694,0,4.264-2.243,4.264-6.17,0-7.178-4.711-13.795-9.647-20.3l-3.255-4.262c-7.625-9.984-10.768-16.6-10.768-26.471,0-12.9,7.739-21.871,20.417-21.871,12.9,0,19.967,8.974,19.967,23.218a21.894,21.894,0,0,0,.672,6.5v1.12H813.341a15.175,15.175,0,0,1-.674-5.046v-7.516c0-3.589-1.682-5.384-4.036-5.384-2.47,0-4.376,1.795-4.376,6.282,0,6.617,3.476,11.329,8.412,17.609l3.366,4.263c7.741,9.756,11.892,17.5,11.892,28.488,0,13.683-7.742,22.432-19.968,22.432-13.685,0-20.643-8.86-20.643-24.564a19.924,19.924,0,0,0-.672-6.28V625.25Z" transform="translate(-296.69 -559.178)" fill="#212322"/>
    <path id="Path_29" data-name="Path 29" d="M871.318,566.41v14.58H860.1v75.148H843.271V580.99H832.055V566.41Z" transform="translate(-298.426 -559.216)" fill="#212322"/>
    <rect id="Rectangle_707" data-name="Rectangle 707" width="16.826" height="89.729" transform="translate(577.788 7.182)" fill="#212322"/>
    <path id="Path_30" data-name="Path 30" d="M923.82,565.244c13.462,0,20.643,10.657,20.643,27.478a27.614,27.614,0,0,0,.557,6.171v1.121H928.2a18.334,18.334,0,0,1-.562-5.046V583.861c0-3.139-1.345-5.158-4.039-5.158s-4.372,2.019-4.372,5.721v53.05c0,3.7,1.682,5.72,4.372,5.72s4.039-2.019,4.039-5.158v-11.1a18.352,18.352,0,0,1,.562-5.048H945.02v1.122a25.315,25.315,0,0,0-.557,6.731c0,16.823-7.181,27.478-20.643,27.478-14.583,0-23.109-11.776-23.109-42.621v-6.729c0-30.845,8.526-42.621,23.109-42.621" transform="translate(-301.037 -559.182)" fill="#212322"/>
    <path id="Path_31" data-name="Path 31" d="M981.892,566.41v14.58H968.43v22.431h11.78V618H968.43v23.553h13.462v14.581H951.6V566.41Z" transform="translate(-302.968 -559.216)" fill="#212322"/>
  </g>
</svg>
