<svg xmlns="http://www.w3.org/2000/svg" width="629" height="306.338" viewBox="0 0 629 306.338">
  <g id="Group_6805" data-name="Group 6805" transform="translate(-375.995 -17819.016)">
    <g id="Group_6799" data-name="Group 6799" transform="translate(432.995 17875.469)">
      <path id="Path_17072" data-name="Path 17072" d="M1164.6,781.935v23.316h4.415V781.935h9.845V838.45h-9.845V814.438H1164.6V838.45h-9.845V781.935Z" transform="translate(-1013.88 -645.773)" fill="#d9000d"/>
      <path id="Path_17073" data-name="Path 17073" d="M1190.588,826.8c0,2.326,1.09,3.6,2.716,3.6s2.715-1.27,2.715-3.6V793.388c0-2.327-1.088-3.6-2.715-3.6s-2.716,1.269-2.716,3.6Zm-11.2-18.647c0-19.433,5.1-26.837,13.912-26.837s13.911,7.42,13.911,26.837v4.23c0,19.434-5.1,26.838-13.911,26.838-8.829,0-13.912-7.42-13.912-26.838Z" transform="translate(-1010.899 -645.848)" fill="#d9000d"/>
      <path id="Path_17074" data-name="Path 17074" d="M1217.538,810.193h.683c2.715,0,4.414-1.631,4.414-5.651v-8.477c0-4.02-1.7-5.652-4.414-5.652h-.683Zm-.131-28.258c8.278,0,15.407,5.652,15.407,17.664v1.42c0,12.013-7.13,17.665-15.276,17.665v19.781h-10.179V781.951h10.048Z" transform="translate(-1007.514 -645.773)" fill="#d9000d"/>
      <path id="Path_17075" data-name="Path 17075" d="M1250.619,781.935v9.186h-8.146v14.13h7.129v9.187h-7.129v14.838h8.146v9.188h-18.325V781.95h18.325Z" transform="translate(-1004.496 -645.773)" fill="#d9000d"/>
      <path id="Path_17076" data-name="Path 17076" d="M1262.644,781.787h18.325v9.187h-8.146V805.1h6.781v9.187h-6.781V838.3h-10.179Z" transform="translate(-1000.823 -645.791)" fill="#d9000d"/>
      <path id="Path_17077" data-name="Path 17077" d="M1291.224,826.637c0,2.327,1.09,3.6,2.716,3.6s2.714-1.27,2.714-3.6V793.226c0-2.326-1.089-3.6-2.714-3.6s-2.716,1.27-2.716,3.6Zm-11.21-18.647c0-19.433,5.1-26.836,13.911-26.836s13.912,7.419,13.912,26.836v4.231c0,19.433-5.1,26.837-13.912,26.837s-13.911-7.419-13.911-26.837Z" transform="translate(-998.721 -645.868)" fill="#d9000d"/>
      <path id="Path_17078" data-name="Path 17078" d="M1317.9,809.334h.334c2.382,0,4.413-1.9,4.413-5.651v-7.768c0-3.747-2.031-5.652-4.413-5.652h-.334Zm-.146-27.548c8.552,0,15.073,6.212,15.073,17.166,0,7.056-2.032,11.017-5.765,14.84l5.1,23.8v.712h-9.846l-3.862-21.473h-1.018l.48,21.473h-10.179V781.786Z" transform="translate(-995.366 -645.791)" fill="#d9000d"/>
      <path id="Path_17079" data-name="Path 17079" d="M1360.865,781.789v44.849c0,7.057-3.049,12.014-10.179,12.014a47.417,47.417,0,0,1-8.146-.711l.683-8.825h5.024c1.974,0,2.787-.922,2.787-2.9V790.961h-7.811v-9.188h17.643Z" transform="translate(-991.154 -645.793)" fill="#d9000d"/>
      <path id="Path_17080" data-name="Path 17080" d="M1386.962,781.787v42.386c0,9.188-4.749,14.839-12.562,14.839s-12.56-5.651-12.56-14.839V781.787h10.178v45.136c0,2.328.741,3.6,2.382,3.6s2.381-1.269,2.381-3.6V781.787Z" transform="translate(-988.818 -645.791)" fill="#d9000d"/>
      <path id="Path_17081" data-name="Path 17081" d="M1395.808,818.945a8.675,8.675,0,0,1,.407,3.174v5.228c0,2.192.944,3.6,2.512,3.6,1.626,0,2.585-1.418,2.585-3.883,0-4.517-2.846-8.689-5.838-12.783l-1.974-2.689c-4.619-6.287-6.52-10.457-6.52-16.669,0-8.114,4.69-13.765,12.357-13.765,7.813,0,12.082,5.651,12.082,14.627a14.5,14.5,0,0,0,.407,4.094v.711h-9.163a9.812,9.812,0,0,1-.407-3.174v-4.728c0-2.268-1.017-3.384-2.439-3.384-1.5,0-2.642,1.132-2.642,3.958,0,4.171,2.105,7.132,5.1,11.091l2.032,2.69c4.69,6.149,7.2,11.015,7.2,17.936,0,8.613-4.69,14.128-12.081,14.128-8.278,0-12.488-5.576-12.488-15.472a13.211,13.211,0,0,0-.407-3.961v-.71h9.279Z" transform="translate(-985.83 -645.868)" fill="#d9000d"/>
      <path id="Path_17082" data-name="Path 17082" d="M1433.846,781.787v9.187h-6.781V838.3h-10.179V790.974H1410.1v-9.187Z" transform="translate(-982.977 -645.791)" fill="#d9000d"/>
      <rect id="Rectangle_2022" data-name="Rectangle 2022" width="10.179" height="56.516" transform="translate(453.832 135.995)" fill="#d9000d"/>
      <path id="Path_17083" data-name="Path 17083" d="M1459.723,781.153c8.146,0,12.488,6.709,12.488,17.3a18.6,18.6,0,0,0,.334,3.883v.71h-10.18a12.059,12.059,0,0,1-.334-3.174v-7c0-1.979-.812-3.247-2.438-3.247s-2.645,1.269-2.645,3.6v33.41c0,2.327,1.018,3.6,2.645,3.6s2.438-1.269,2.438-3.248v-7a11.907,11.907,0,0,1,.334-3.174h10.18v.71a16.743,16.743,0,0,0-.334,4.246c0,10.594-4.343,17.3-12.488,17.3-8.829,0-13.985-7.419-13.985-26.836V808c0-19.433,5.17-26.852,13.985-26.852" transform="translate(-978.665 -645.868)" fill="#d9000d"/>
      <path id="Path_17084" data-name="Path 17084" d="M1490.489,781.787v9.187h-8.145V805.1h7.13v9.187h-7.13v14.839h8.145v9.188h-18.325V781.8h18.325Z" transform="translate(-975.466 -645.791)" fill="#d9000d"/>
      <path id="Path_17085" data-name="Path 17085" d="M1179.031,723.939a3.213,3.213,0,0,1-4.594-.837,3.533,3.533,0,0,1,.8-4.789,3.214,3.214,0,0,1,4.594.837,3.521,3.521,0,0,1-.8,4.789m15.011-10.74a.144.144,0,0,0-.143-.064c-3.6.443-7.844.928-7.844.928a19.2,19.2,0,0,0-15.646-.96,21.428,21.428,0,0,0-11.384,9.817l-1.895-.664,1.342-11.532a20.654,20.654,0,0,0-8.846-19.12l-47.01-31.131c-1,2.352-6.98,31.728,19.754,45.427,13.285,6.8,16.3,8.311,16.868,8.912a2.524,2.524,0,0,1,.945,1.518s-24.75-8.544-31.5-10.97c-22.273-7.968-61.163-21.8-79.6-28.181,0,0,6.423,51.711,65.386,72.966,18.63,6.873,33.764,12.427,33.764,12.427a8.586,8.586,0,0,1,4.8,3.715,8.455,8.455,0,0,1,.136,7.547c-8.685,17.1-38.867,76.582-40.5,79.8a33.016,33.016,0,0,0,12.438-9.019c4.069-4.857,7.2-8.865,14.469-17.645,8.886-10.745,18.425-22.252,18.425-22.252l2.439,25.169a22.368,22.368,0,0,0,5.673-13c.744-6.584,2.982-25.569,2.982-25.569s16.138-19.683,29.842-36.263c13.23-15.923,9.757-32.252,9.371-33.6,0,0,4.585-6.423,5.726-8.058a.174.174,0,0,0,.008-.191" transform="translate(-1029.089 -660.473)" fill="#d9000d"/>
    </g>
    <g id="Rectangle_2030" data-name="Rectangle 2030" transform="translate(432.995 17875.016)" fill="none" stroke="#707070" stroke-width="1">
      <rect width="515" height="194" stroke="none"/>
      <rect x="0.5" y="0.5" width="514" height="193" fill="none"/>
    </g>
    <g id="Rectangle_2031" data-name="Rectangle 2031" transform="translate(375.995 17819.016)" fill="none" stroke="#707070" stroke-width="1">
      <rect width="629" height="306" stroke="none"/>
      <rect x="0.5" y="0.5" width="628" height="305" fill="none"/>
    </g>
    <path id="Path_17092" data-name="Path 17092" d="M1164.6,781.935v23.316h4.415V781.935h9.845V838.45h-9.845V814.438H1164.6V838.45h-9.845V781.935Z" transform="translate(1786.468 16696.609) rotate(90)" fill="#d3d3d3"/>
    <path id="Path_17094" data-name="Path 17094" d="M1164.6,781.935v23.316h4.415V781.935h9.845V838.45h-9.845V814.438H1164.6V838.45h-9.845V781.935Z" transform="translate(1214.931 16914.086) rotate(90)" fill="#d3d3d3"/>
    <path id="Path_17093" data-name="Path 17093" d="M1164.6,781.935v23.316h4.415V781.935h9.845V838.45h-9.845V814.438H1164.6V838.45h-9.845V781.935Z" transform="translate(2126.855 18907.289) rotate(180)" fill="#d3d3d3"/>
    <path id="Path_17091" data-name="Path 17091" d="M1164.589,781.935v23.291H1169V781.935h9.834v56.454H1169V814.4h-4.41v23.985h-9.834V781.935Z" transform="translate(-745.838 17037.627)" fill="#d3d3d3"/>
    <g id="Rectangle_2032" data-name="Rectangle 2032" transform="translate(375.995 17819.016)" fill="none" stroke="#707070" stroke-width="1">
      <rect width="58" height="57" stroke="none"/>
      <rect x="0.5" y="0.5" width="57" height="56" fill="none"/>
    </g>
    <g id="Rectangle_2033" data-name="Rectangle 2033" transform="translate(375.995 18068.016)" fill="none" stroke="#707070" stroke-width="1">
      <rect width="58" height="57" stroke="none"/>
      <rect x="0.5" y="0.5" width="57" height="56" fill="none"/>
    </g>
    <g id="Rectangle_2034" data-name="Rectangle 2034" transform="translate(946.995 18068.016)" fill="none" stroke="#707070" stroke-width="1">
      <rect width="58" height="57" stroke="none"/>
      <rect x="0.5" y="0.5" width="57" height="56" fill="none"/>
    </g>
    <g id="Rectangle_2035" data-name="Rectangle 2035" transform="translate(946.995 17819.016)" fill="none" stroke="#707070" stroke-width="1">
      <rect width="58" height="57" stroke="none"/>
      <rect x="0.5" y="0.5" width="57" height="56" fill="none"/>
    </g>
  </g>
</svg>
