<svg xmlns="http://www.w3.org/2000/svg" width="421.373" height="158.211" viewBox="0 0 421.373 158.211">
  <g id="Group_6800" data-name="Group 6800" transform="translate(-1029.089 -660.473)">
    <path id="Path_17072" data-name="Path 17072" d="M1162.81,781.935v19.076h3.612V781.935h8.055v46.238h-8.055V808.528h-3.612v19.645h-8.055V781.935Z" transform="translate(-10.407 -10.059)" fill="#fff"/>
    <path id="Path_17073" data-name="Path 17073" d="M1188.552,818.529c0,1.9.891,2.942,2.222,2.942s2.221-1.039,2.221-2.942V791.193c0-1.9-.891-2.942-2.221-2.942s-2.222,1.038-2.222,2.942Zm-9.16-15.256c0-15.9,4.17-21.957,11.382-21.957s11.381,6.071,11.381,21.957v3.461c0,15.9-4.17,21.958-11.381,21.958s-11.382-6.071-11.382-21.958Z" transform="translate(-12.448 -10.008)" fill="#fff"/>
    <path id="Path_17074" data-name="Path 17074" d="M1215.687,805.054h.559c2.221,0,3.611-1.334,3.611-4.624V793.5c0-3.289-1.39-4.624-3.611-4.624h-.559Zm-.107-23.119c6.772,0,12.606,4.624,12.606,14.452v1.162c0,9.828-5.833,14.453-12.5,14.453v16.184h-8.328V781.948h8.221Z" transform="translate(-14.764 -10.059)" fill="#fff"/>
    <path id="Path_17075" data-name="Path 17075" d="M1247.287,781.935v7.515h-6.664v11.561h5.832v7.516h-5.832v12.14h6.664v7.517h-14.993V781.947h14.993Z" transform="translate(-16.829 -10.059)" fill="#fff"/>
    <path id="Path_17076" data-name="Path 17076" d="M1262.644,781.787h14.993V789.3h-6.665v11.56h5.548v7.516h-5.548v19.646h-8.328Z" transform="translate(-19.343 -10.047)" fill="#fff"/>
    <path id="Path_17077" data-name="Path 17077" d="M1289.186,818.367c0,1.9.891,2.943,2.222,2.943s2.221-1.039,2.221-2.943V791.031c0-1.9-.891-2.942-2.221-2.942s-2.222,1.039-2.222,2.942Zm-9.172-15.256c0-15.9,4.17-21.957,11.381-21.957s11.382,6.07,11.382,21.957v3.461c0,15.9-4.17,21.957-11.382,21.957s-11.381-6.07-11.381-21.957Z" transform="translate(-20.781 -9.994)" fill="#fff"/>
    <path id="Path_17078" data-name="Path 17078" d="M1316.05,804.325h.273c1.949,0,3.611-1.558,3.611-4.624v-6.355c0-3.065-1.662-4.624-3.611-4.624h-.273Zm-.119-22.539c7,0,12.332,5.082,12.332,14.045,0,5.773-1.663,9.014-4.717,12.142l4.171,19.471v.582h-8.056l-3.16-17.569h-.833l.393,17.569h-8.328v-46.24Z" transform="translate(-23.077 -10.047)" fill="#fff"/>
    <path id="Path_17079" data-name="Path 17079" d="M1357.533,781.786V818.48c0,5.774-2.495,9.829-8.328,9.829a38.8,38.8,0,0,1-6.665-.581l.558-7.22h4.111c1.615,0,2.28-.754,2.28-2.375V789.29H1343.1v-7.517h14.435Z" transform="translate(-25.959 -10.046)" fill="#fff"/>
    <path id="Path_17080" data-name="Path 17080" d="M1382.394,781.787v34.679c0,7.517-3.885,12.141-10.278,12.141s-10.276-4.624-10.276-12.141V781.787h8.327v36.929c0,1.905.606,2.943,1.949,2.943s1.948-1.038,1.948-2.943V781.787Z" transform="translate(-27.558 -10.047)" fill="#fff"/>
    <path id="Path_17081" data-name="Path 17081" d="M1394.121,812.073a7.1,7.1,0,0,1,.333,2.6v4.278c0,1.793.772,2.941,2.056,2.941,1.331,0,2.115-1.16,2.115-3.177,0-3.7-2.329-7.109-4.776-10.459l-1.615-2.2c-3.779-5.144-5.334-8.555-5.334-13.638,0-6.639,3.837-11.262,10.11-11.262,6.392,0,9.885,4.623,9.885,11.967a11.858,11.858,0,0,0,.333,3.35v.581h-7.5a8.029,8.029,0,0,1-.333-2.6v-3.869c0-1.855-.832-2.769-2-2.769-1.223,0-2.162.926-2.162,3.239,0,3.413,1.722,5.835,4.171,9.075l1.663,2.2c3.837,5.031,5.893,9.012,5.893,14.675,0,7.047-3.837,11.559-9.884,11.559-6.772,0-10.218-4.562-10.218-12.659a10.811,10.811,0,0,0-.333-3.24v-.581h7.592Z" transform="translate(-29.602 -9.994)" fill="#fff"/>
    <path id="Path_17082" data-name="Path 17082" d="M1429.529,781.787V789.3h-5.548v38.723h-8.328V789.3H1410.1v-7.516Z" transform="translate(-31.555 -10.047)" fill="#fff"/>
    <rect id="Rectangle_2022" data-name="Rectangle 2022" width="8.328" height="46.24" transform="translate(1400.398 771.739)" fill="#fff"/>
    <path id="Path_17083" data-name="Path 17083" d="M1457.18,781.153c6.664,0,10.217,5.489,10.217,14.156a15.223,15.223,0,0,0,.273,3.177v.58h-8.329a9.856,9.856,0,0,1-.273-2.6v-5.724c0-1.619-.665-2.657-1.995-2.657s-2.164,1.038-2.164,2.942v27.335c0,1.9.833,2.942,2.164,2.942s1.995-1.038,1.995-2.657v-5.724a9.732,9.732,0,0,1,.273-2.6h8.329v.581a13.7,13.7,0,0,0-.273,3.474c0,8.667-3.553,14.156-10.217,14.156-7.224,0-11.442-6.07-11.442-21.956v-3.462c0-15.9,4.23-21.969,11.442-21.969" transform="translate(-34.506 -9.994)" fill="#fff"/>
    <path id="Path_17084" data-name="Path 17084" d="M1487.157,781.787V789.3h-6.664v11.56h5.833v7.516h-5.833v12.141h6.664v7.517h-14.993V781.8h14.993Z" transform="translate(-36.694 -10.047)" fill="#fff"/>
    <path id="Path_17085" data-name="Path 17085" d="M1151.767,712.4a2.629,2.629,0,0,1-3.759-.685,2.891,2.891,0,0,1,.657-3.918,2.63,2.63,0,0,1,3.759.685,2.881,2.881,0,0,1-.657,3.918m12.282-8.787a.118.118,0,0,0-.117-.052c-2.949.362-6.418.759-6.418.759a15.705,15.705,0,0,0-12.8-.785,17.531,17.531,0,0,0-9.314,8.032l-1.55-.543,1.1-9.435a16.9,16.9,0,0,0-7.237-15.643l-38.462-25.47c-.815,1.924-5.711,25.959,16.162,37.167,10.87,5.56,13.337,6.8,13.8,7.292a2.065,2.065,0,0,1,.773,1.242s-20.249-6.991-25.769-8.976c-18.223-6.519-50.042-17.838-65.125-23.057,0,0,5.255,42.308,53.5,59.7,15.243,5.623,27.625,10.167,27.625,10.167a7.025,7.025,0,0,1,3.925,3.04,6.918,6.918,0,0,1,.111,6.174c-7.105,13.994-31.8,62.656-33.137,65.287a27.012,27.012,0,0,0,10.176-7.379c3.329-3.974,5.891-7.253,11.838-14.436,7.27-8.791,15.075-18.206,15.075-18.206l2,20.593a18.3,18.3,0,0,0,4.642-10.637c.609-5.387,2.44-20.92,2.44-20.92s13.2-16.1,24.415-29.669c10.825-13.028,7.983-26.387,7.667-27.494,0,0,3.751-5.255,4.685-6.593a.142.142,0,0,0,.006-.156" transform="translate(0 0)" fill="#fff"/>
  </g>
</svg>
