<svg id="Group_6754" data-name="Group 6754" xmlns="http://www.w3.org/2000/svg" width="189.802" height="213.617" viewBox="0 0 189.802 213.617">
  <path id="Path_17052" data-name="Path 17052" d="M197.09,68.207a.163.163,0,0,0-.165-.07c-4.146.488-9.023,1.027-9.023,1.027a22.857,22.857,0,0,0-18-1.062,24.386,24.386,0,0,0-13.1,10.856l-2.181-.734,1.544-12.755c1.116-9.22-4.148-17.285-10.177-21.145L91.907,9.9c-1.146,2.6-8.032,35.089,22.726,50.24,15.283,7.515,18.753,9.191,19.4,9.856a2.755,2.755,0,0,1,1.088,1.678s-28.473-9.449-36.235-12.132C73.267,50.727,28.525,35.426,7.316,28.372c0,0,7.389,57.188,75.223,80.7,21.434,7.6,38.844,13.741,38.844,13.741s3.833,1.039,5.52,4.11a9.035,9.035,0,0,1,.155,8.346c-9.992,18.916-44.715,84.695-46.6,88.249a38.1,38.1,0,0,0,14.31-9.973c4.681-5.372,8.284-9.8,16.646-19.514,10.224-11.882,21.2-24.609,21.2-24.609l2.806,27.836a24.387,24.387,0,0,0,6.528-14.379c.856-7.28,3.431-28.277,3.431-28.277s18.566-21.768,34.332-40.1c15.221-17.61,11.225-35.668,10.781-37.164,0,0,5.274-7.1,6.588-8.912A.183.183,0,0,0,197.09,68.207Zm-17.27,11.878a3.8,3.8,0,1,1,.924-5.3A3.791,3.791,0,0,1,179.819,80.085Z" transform="translate(-7.316 -9.896)" fill="#d6001c"/>
</svg>
