<svg xmlns="http://www.w3.org/2000/svg" width="133.347" height="176.887" viewBox="0 0 133.347 176.887">
  <g id="Group_6801" data-name="Group 6801" transform="translate(0 -1.407)">
    <g id="Group_6785" data-name="Group 6785" transform="translate(19.325 1.407)">
      <path id="Path_17056" data-name="Path 17056" d="M175.47,36.437a.1.1,0,0,0-.1-.042c-2.49.293-5.42.617-5.42.617a13.731,13.731,0,0,0-10.814-.638,14.651,14.651,0,0,0-7.867,6.522l-1.31-.441.927-7.663a13.538,13.538,0,0,0-6.113-12.7L112.282,1.407c-.689,1.563-4.825,21.079,13.652,30.181,9.182,4.515,11.266,5.522,11.658,5.921a1.656,1.656,0,0,1,.654,1.008s-17.105-5.677-21.768-7.288c-15.394-5.293-42.272-14.485-55.013-18.723,0,0,4.439,34.355,45.19,48.478,12.876,4.566,23.335,8.255,23.335,8.255a5.937,5.937,0,0,1,3.316,2.469,5.426,5.426,0,0,1,.093,5.014c-6,11.364-26.863,50.88-27.992,53.015a22.879,22.879,0,0,0,8.6-5.991c2.812-3.227,4.977-5.89,10-11.723,6.142-7.138,12.734-14.784,12.734-14.784l1.686,16.723a14.65,14.65,0,0,0,3.922-8.638c.514-4.374,2.061-16.987,2.061-16.987s11.153-13.077,20.625-24.093c9.144-10.579,6.744-21.427,6.477-22.325,0,0,3.168-4.268,3.957-5.354A.109.109,0,0,0,175.47,36.437Zm-10.375,7.135a2.283,2.283,0,1,1,.555-3.183A2.278,2.278,0,0,1,165.095,43.572Z" transform="translate(-61.465 -1.407)" fill="#fff"/>
    </g>
    <g id="Group_6786" data-name="Group 6786" transform="translate(0 77.98)">
      <path id="Path_17057" data-name="Path 17057" d="M5.55,246.191V258.88H8.039V246.191h5.55v30.757H8.039V263.88H5.55v13.068H0V246.191Z" transform="translate(0 -245.805)" fill="#fff"/>
      <path id="Path_17058" data-name="Path 17058" d="M49.523,259.567c0-10.576,2.873-14.605,7.842-14.605s7.842,4.038,7.842,14.605v2.3c0,10.576-2.873,14.605-7.842,14.605s-7.842-4.038-7.842-14.605Zm6.312,10.148c0,1.267.614,1.957,1.531,1.957s1.531-.691,1.531-1.957V251.533c0-1.266-.614-1.957-1.531-1.957s-1.531.691-1.531,1.957Z" transform="translate(-33.953 -244.962)" fill="#fff"/>
      <path id="Path_17059" data-name="Path 17059" d="M111.377,246.191c4.666,0,8.686,3.076,8.686,9.614v.773c0,6.538-4.02,9.614-8.612,9.614v10.765h-5.738V246.2h5.665Zm.082,15.37h.385c1.531,0,2.488-.888,2.488-3.076v-4.613c0-2.188-.958-3.076-2.488-3.076h-.385Z" transform="translate(-72.476 -245.805)" fill="#fff"/>
      <path id="Path_17060" data-name="Path 17060" d="M166.192,246.191v5H161.6v7.689h4.02v5H161.6v8.076h4.592v5H155.861V246.2h10.331Z" transform="translate(-106.858 -245.805)" fill="#fff"/>
      <path id="Path_17061" data-name="Path 17061" d="M0,355.554H10.331v5H5.738v7.689H9.561v5H5.738v13.067H0Z" transform="translate(0 -320.784)" fill="#fff"/>
      <path id="Path_17062" data-name="Path 17062" d="M34.916,368.956c0-10.576,2.873-14.605,7.842-14.605s7.842,4.038,7.842,14.605v2.3c0,10.576-2.873,14.605-7.842,14.605s-7.842-4.038-7.842-14.605ZM41.228,379.1c0,1.266.614,1.957,1.531,1.957s1.531-.691,1.531-1.957V360.922c0-1.266-.614-1.957-1.531-1.957s-1.531.691-1.531,1.957Z" transform="translate(-23.938 -319.959)" fill="#fff"/>
      <path id="Path_17063" data-name="Path 17063" d="M96.285,355.554c4.822,0,8.5,3.38,8.5,9.342a10.126,10.126,0,0,1-3.25,8.076l2.873,12.952v.386h-5.55l-2.178-11.686h-.573l.27,11.686H90.637V355.554Zm.074,15h.188c1.342,0,2.488-1.036,2.488-3.075v-4.227c0-2.039-1.146-3.076-2.488-3.076h-.188Z" transform="translate(-62.141 -320.784)" fill="#fff"/>
      <path id="Path_17064" data-name="Path 17064" d="M10.331,464.925v24.408c0,3.841-1.719,6.538-5.738,6.538A27.662,27.662,0,0,1,0,495.485l.385-4.8H3.217c1.113,0,1.572-.5,1.572-1.579V469.917H0v-5H10.331Z" transform="translate(0 -395.763)" fill="#fff"/>
      <path id="Path_17065" data-name="Path 17065" d="M52.958,464.943v23.068c0,5-2.677,8.076-7.081,8.076S38.8,493.01,38.8,488.011V464.943h5.738v24.564c0,1.266.418,1.957,1.342,1.957s1.343-.691,1.343-1.957V464.943Z" transform="translate(-26.599 -395.781)" fill="#fff"/>
      <path id="Path_17066" data-name="Path 17066" d="M93.655,484.282a4.566,4.566,0,0,1,.229,1.727v2.845c0,1.192.532,1.957,1.416,1.957.917,0,1.457-.773,1.457-2.113,0-2.459-1.6-4.729-3.291-6.957l-1.113-1.464c-2.6-3.421-3.676-5.691-3.676-9.071,0-4.416,2.644-7.492,6.966-7.492,4.4,0,6.811,3.076,6.811,7.961a7.629,7.629,0,0,0,.229,2.228v.387H97.519a5.167,5.167,0,0,1-.23-1.727v-2.574c0-1.234-.573-1.842-1.375-1.842-.843,0-1.49.617-1.49,2.154,0,2.27,1.187,3.882,2.874,6.036l1.146,1.464c2.644,3.347,4.06,5.995,4.06,9.761,0,4.688-2.644,7.689-6.811,7.689-4.666,0-7.04-3.035-7.04-8.421a6.948,6.948,0,0,0-.229-2.155v-.386h5.231Z" transform="translate(-60.624 -394.938)" fill="#fff"/>
      <path id="Path_17067" data-name="Path 17067" d="M149.178,464.943v5h-3.823V495.7h-5.738V469.943h-3.831v-5Z" transform="translate(-93.094 -395.781)" fill="#fff"/>
      <path id="Path_17068" data-name="Path 17068" d="M189.434,464.943V495.7h-5.739V464.943Z" transform="translate(-125.941 -395.781)" fill="#fff"/>
      <path id="Path_17069" data-name="Path 17069" d="M215.324,463.74c4.593,0,7.04,3.651,7.04,9.416a9.8,9.8,0,0,0,.188,2.113v.386h-5.739a6.368,6.368,0,0,1-.188-1.727v-3.807c0-1.078-.458-1.768-1.375-1.768s-1.49.691-1.49,1.957v18.183c0,1.266.573,1.957,1.49,1.957s1.375-.691,1.375-1.768v-3.807a6.281,6.281,0,0,1,.188-1.727h5.739v.386a8.8,8.8,0,0,0-.188,2.311c0,5.765-2.448,9.416-7.04,9.416-4.977,0-7.883-4.038-7.883-14.605v-2.3C207.441,467.77,210.347,463.74,215.324,463.74Z" transform="translate(-142.222 -394.956)" fill="#fff"/>
      <path id="Path_17070" data-name="Path 17070" d="M270.888,464.943v5H266.3v7.689h4.019v5H266.3v8.076h4.592v5H260.557V464.951h10.331Z" transform="translate(-178.638 -395.781)" fill="#fff"/>
    </g>
  </g>
</svg>
