<svg xmlns="http://www.w3.org/2000/svg" viewBox="0 0 114.03 128.33"><defs><style>.cls-1{fill:#fff;}</style></defs><g id="Layer_2" data-name="Layer 2"><g id="Layer_1-2" data-name="Layer 1"><g id="Group_6785" data-name="Group 6785"><path id="Path_17056" data-name="Path 17056" class="cls-1" d="M114,35a.1.1,0,0,0-.1,0l-5.42.62A13.69,13.69,0,0,0,97.67,35a14.67,14.67,0,0,0-7.87,6.52l-1.31-.44.93-7.67a13.55,13.55,0,0,0-6.11-12.7L50.82,0C50.13,1.56,46,21.08,64.47,30.18c9.18,4.52,11.26,5.52,11.66,5.92a1.65,1.65,0,0,1,.65,1S59.68,31.43,55,29.82C39.62,24.53,12.74,15.34,0,11.1c0,0,4.44,34.35,45.19,48.48l23.33,8.25a5.94,5.94,0,0,1,3.32,2.47,5.43,5.43,0,0,1,.09,5c-6,11.36-26.86,50.88-28,53a22.86,22.86,0,0,0,8.6-6c2.81-3.23,5-5.89,10-11.72,6.14-7.14,12.74-14.79,12.74-14.79L77,112.55a14.6,14.6,0,0,0,3.92-8.63c.52-4.38,2.06-17,2.06-17S94.1,73.85,103.57,62.84c9.14-10.58,6.74-21.43,6.48-22.33l4-5.35A.11.11,0,0,0,114,35Zm-10.37,7.13a2.28,2.28,0,1,1,.55-3.18,2.28,2.28,0,0,1-.55,3.18Z"/></g></g></g></svg>