<svg xmlns="http://www.w3.org/2000/svg" width="395" height="485.016" viewBox="0 0 395 485.016">
  <g id="Group_6804" data-name="Group 6804" transform="translate(-376 -17157)">
    <g id="Group_6798" data-name="Group 6798" transform="translate(435 17261.758)">
      <g id="Group_6785" data-name="Group 6785" transform="translate(37.026 -17.593)">
        <path id="Path_17056" data-name="Path 17056" d="M279.9,68.525a.189.189,0,0,0-.191-.081c-4.771.561-10.385,1.182-10.385,1.182a26.31,26.31,0,0,0-20.72-1.223,28.071,28.071,0,0,0-15.074,12.5l-2.51-.845L232.8,65.374c1.284-10.612-4.774-19.9-11.714-24.338L158.832,1.407c-1.319,2.995-9.244,40.388,26.158,57.828,17.592,8.65,21.586,10.58,22.336,11.345a3.172,3.172,0,0,1,1.252,1.932S175.8,61.635,166.871,58.547C137.377,48.4,85.877,30.792,61.465,22.672c0,0,8.505,65.825,86.585,92.885,24.671,8.749,44.711,15.817,44.711,15.817s4.412,1.2,6.353,4.731a10.4,10.4,0,0,1,.179,9.606c-11.5,21.773-51.469,97.487-53.634,101.578a43.836,43.836,0,0,0,16.471-11.479c5.388-6.183,9.535-11.285,19.161-22.462,11.768-13.677,24.4-28.326,24.4-28.326l3.23,32.041a28.069,28.069,0,0,0,7.514-16.551c.985-8.38,3.949-32.548,3.949-32.548s21.37-25.055,39.517-46.162c17.52-20.269,12.921-41.055,12.409-42.776,0,0,6.07-8.178,7.582-10.259A.209.209,0,0,0,279.9,68.525ZM260.022,82.2a4.374,4.374,0,1,1,1.063-6.1A4.364,4.364,0,0,1,260.022,82.2Z" transform="translate(-61.465 -1.407)" fill="#212322"/>
      </g>
      <g id="Group_6786" data-name="Group 6786" transform="translate(0 129.123)">
        <path id="Path_17057" data-name="Path 17057" d="M10.634,246.191V270.5H15.4V246.191H26.037v58.931H15.4V280.084H10.634v25.038H0V246.191Z" transform="translate(0 -245.451)" fill="#212322"/>
        <path id="Path_17058" data-name="Path 17058" d="M49.523,272.946c0-20.263,5.505-27.984,15.026-27.984s15.026,7.737,15.026,27.984v4.412c0,20.263-5.505,27.984-15.026,27.984s-15.026-7.737-15.026-27.984ZM61.616,292.39c0,2.427,1.176,3.751,2.933,3.751s2.933-1.324,2.933-3.751V257.551c0-2.426-1.176-3.75-2.933-3.75s-2.933,1.323-2.933,3.75Z" transform="translate(-19.691 -244.962)" fill="#212322"/>
        <path id="Path_17059" data-name="Path 17059" d="M116.566,246.191c8.94,0,16.642,5.893,16.642,18.42v1.481c0,12.527-7.7,18.42-16.5,18.42v20.626H105.712V246.207h10.854Zm.157,29.45h.737c2.933,0,4.768-1.7,4.768-5.893v-8.839c0-4.192-1.835-5.893-4.768-5.893h-.737Z" transform="translate(-42.032 -245.451)" fill="#212322"/>
        <path id="Path_17060" data-name="Path 17060" d="M175.655,246.191v9.58h-8.8V270.5h7.7v9.58h-7.7v15.473h8.8v9.581H155.861V246.207h19.794Z" transform="translate(-61.971 -245.451)" fill="#212322"/>
        <path id="Path_17061" data-name="Path 17061" d="M0,355.554H19.794v9.58h-8.8v14.733H18.32v9.58H10.995v25.037H0Z" transform="translate(0 -288.934)" fill="#212322"/>
        <path id="Path_17062" data-name="Path 17062" d="M34.916,382.335c0-20.263,5.505-27.984,15.026-27.984s15.026,7.736,15.026,27.984v4.412c0,20.263-5.505,27.984-15.026,27.984s-15.026-7.737-15.026-27.984Zm12.093,19.444c0,2.426,1.176,3.75,2.933,3.75s2.933-1.323,2.933-3.75V366.94c0-2.427-1.176-3.75-2.933-3.75s-2.933,1.323-2.933,3.75Z" transform="translate(-13.883 -288.456)" fill="#212322"/>
        <path id="Path_17063" data-name="Path 17063" d="M101.46,355.554c9.238,0,16.281,6.476,16.281,17.9,0,7.359-2.2,11.487-6.227,15.474l5.505,24.817v.74H106.384l-4.172-22.39h-1.1l.517,22.39H90.637V355.554Zm.141,28.74h.361c2.572,0,4.768-1.985,4.768-5.893v-8.1c0-3.908-2.2-5.893-4.768-5.893H101.6Z" transform="translate(-36.038 -288.934)" fill="#212322"/>
        <path id="Path_17064" data-name="Path 17064" d="M19.794,464.933V511.7c0,7.359-3.293,12.527-10.995,12.527a53.009,53.009,0,0,1-8.8-.74l.737-9.2H6.164c2.133,0,3.011-.961,3.011-3.025V474.5H0v-9.58H19.794Z" transform="translate(0 -332.417)" fill="#212322"/>
        <path id="Path_17065" data-name="Path 17065" d="M65.931,464.943v44.2c0,9.58-5.129,15.473-13.568,15.473S38.8,518.721,38.8,509.141v-44.2H49.791v47.066c0,2.427.8,3.75,2.572,3.75,1.757,0,2.573-1.324,2.573-3.75V464.943Z" transform="translate(-15.425 -332.427)" fill="#212322"/>
        <path id="Path_17066" data-name="Path 17066" d="M98.447,503.122a8.748,8.748,0,0,1,.439,3.309v5.452c0,2.285,1.019,3.75,2.713,3.75,1.757,0,2.792-1.481,2.792-4.049,0-4.711-3.074-9.06-6.305-13.331l-2.133-2.8c-4.988-6.555-7.043-10.9-7.043-17.38,0-8.462,5.066-14.355,13.348-14.355,8.438,0,13.05,5.893,13.05,15.253a14.616,14.616,0,0,0,.439,4.27v.741h-9.9a9.9,9.9,0,0,1-.44-3.309v-4.932c0-2.364-1.1-3.53-2.635-3.53-1.616,0-2.855,1.182-2.855,4.128,0,4.349,2.275,7.438,5.506,11.566l2.2,2.8c5.066,6.413,7.779,11.486,7.779,18.7,0,8.982-5.066,14.733-13.05,14.733-8.94,0-13.489-5.814-13.489-16.135a13.313,13.313,0,0,0-.439-4.128v-.74H98.447Z" transform="translate(-35.158 -331.938)" fill="#212322"/>
        <path id="Path_17067" data-name="Path 17067" d="M161.446,464.943v9.58h-7.325v49.351H143.126V474.523h-7.341v-9.58Z" transform="translate(-53.989 -332.427)" fill="#212322"/>
        <path id="Path_17068" data-name="Path 17068" d="M194.69,464.943v58.931h-11V464.943Z" transform="translate(-73.038 -332.427)" fill="#212322"/>
        <path id="Path_17069" data-name="Path 17069" d="M222.545,463.74c8.8,0,13.489,7,13.489,18.042a18.783,18.783,0,0,0,.361,4.049v.74h-11a12.2,12.2,0,0,1-.361-3.309v-7.295c0-2.065-.878-3.388-2.635-3.388s-2.855,1.323-2.855,3.75v34.839c0,2.426,1.1,3.75,2.855,3.75s2.635-1.324,2.635-3.388v-7.295a12.038,12.038,0,0,1,.361-3.309h11v.74a16.863,16.863,0,0,0-.361,4.427c0,11.046-4.69,18.042-13.489,18.042-9.536,0-15.1-7.736-15.1-27.984V491.74C207.441,471.461,213.01,463.74,222.545,463.74Z" transform="translate(-82.479 -331.949)" fill="#212322"/>
        <path id="Path_17070" data-name="Path 17070" d="M280.351,464.943v9.58h-8.8v14.733h7.7v9.58h-7.7v15.473h8.8v9.58H260.557V464.959h19.794Z" transform="translate(-103.598 -332.427)" fill="#212322"/>
      </g>
    </g>
    <g id="Rectangle_2023" data-name="Rectangle 2023" transform="translate(435 17216)" fill="none" stroke="#707070" stroke-width="1">
      <rect width="277" height="367" stroke="none"/>
      <rect x="0.5" y="0.5" width="276" height="366" fill="none"/>
    </g>
    <g id="Rectangle_2029" data-name="Rectangle 2029" transform="translate(376 17157)" fill="none" stroke="#707070" stroke-width="1">
      <rect width="395" height="485" stroke="none"/>
      <rect x="0.5" y="0.5" width="394" height="484" fill="none"/>
    </g>
    <g id="Rectangle_2028" data-name="Rectangle 2028" transform="translate(376 17582)" fill="#fff" stroke="#707070" stroke-width="1">
      <rect width="60" height="60" stroke="none"/>
      <rect x="0.5" y="0.5" width="59" height="59" fill="none"/>
    </g>
    <g id="Rectangle_2025" data-name="Rectangle 2025" transform="translate(711 17582)" fill="#fff" stroke="#707070" stroke-width="1">
      <rect width="60" height="60" stroke="none"/>
      <rect x="0.5" y="0.5" width="59" height="59" fill="none"/>
    </g>
    <g id="Rectangle_2026" data-name="Rectangle 2026" transform="translate(376 17157)" fill="#fff" stroke="#707070" stroke-width="1">
      <rect width="60" height="60" stroke="none"/>
      <rect x="0.5" y="0.5" width="59" height="59" fill="none"/>
    </g>
    <g id="Rectangle_2027" data-name="Rectangle 2027" transform="translate(711 17157)" fill="#fff" stroke="#707070" stroke-width="1">
      <rect width="60" height="60" stroke="none"/>
      <rect x="0.5" y="0.5" width="59" height="59" fill="none"/>
    </g>
    <path id="Path_17088" data-name="Path 17088" d="M10.634,246.191V270.5H15.4V246.191H26.037v58.931H15.4V280.084H10.634v25.038H0V246.191Z" transform="translate(681.122 17189.963) rotate(90)" fill="#212322" opacity="0.195"/>
    <path id="Path_17089" data-name="Path 17089" d="M10.634,246.191V270.5H15.4V246.191H26.037v58.931H15.4V280.084H10.634v25.038H0V246.191Z" transform="translate(738.037 17462.123) rotate(180)" fill="#212322" opacity="0.195"/>
    <path id="Path_17090" data-name="Path 17090" d="M10.634,246.191V270.5H15.4V246.191H26.037v58.931H15.4V280.084H10.634v25.038H0V246.191Z" transform="translate(465.343 17609.105) rotate(-90)" fill="#212322" opacity="0.195"/>
    <path id="Path_17087" data-name="Path 17087" d="M10.634,246.191V270.5H15.4V246.191H26.037v58.931H15.4V280.084H10.634v25.038H0V246.191Z" transform="translate(436 17888.207) rotate(180)" fill="#212322" opacity="0.195"/>
  </g>
</svg>
