<svg xmlns="http://www.w3.org/2000/svg" xmlns:xlink="http://www.w3.org/1999/xlink" width="780.131" height="464.643" viewBox="0 0 780.131 464.643">
  <defs>
    <clipPath id="clip-path">
      <rect id="Rectangle_2021" data-name="Rectangle 2021" width="418.961" height="464.643" fill="none"/>
    </clipPath>
  </defs>
  <g id="Group_6802" data-name="Group 6802" transform="translate(-376 -11944)">
    <g id="Group_6793" data-name="Group 6793" transform="translate(-693.82 11808.622)" opacity="0.3">
      <g id="Group_6792" data-name="Group 6792" transform="translate(1069.82 135.378)">
        <g id="Group_6791" data-name="Group 6791" clip-path="url(#clip-path)">
          <path id="Path_17071" data-name="Path 17071" d="M1451.283,294.155a8.182,8.182,0,1,1,1.99-11.4,8.181,8.181,0,0,1-1.99,11.4m37.228-25.559a.351.351,0,0,0-.356-.152c-8.936,1.052-19.45,2.211-19.45,2.211a49.351,49.351,0,0,0-38.805-2.287c-12.968,4.443-22.14,13.209-28.232,23.363l-4.7-1.58L1400.3,262.7c2.4-19.841-8.941-37.2-21.938-45.5l-116.588-74.088c-2.471,5.6-17.313,75.509,48.989,108.115,32.948,16.172,40.426,19.779,41.832,21.21,2.254,1.971,2.346,3.611,2.346,3.611s-61.381-20.335-78.112-26.108c-55.238-18.961-151.688-51.889-197.409-67.071,0,0,15.93,123.066,162.16,173.657,46.2,16.358,83.736,29.571,83.736,29.571s8.262,2.237,11.9,8.844c5.222,9.1.335,17.96.335,17.96-21.541,40.706-96.393,182.261-100.449,189.91a82.122,82.122,0,0,0,30.849-21.462c10.09-11.56,17.857-21.1,35.885-41.995,22.039-25.571,45.694-52.959,45.694-52.959l6.05,59.9s11.78-10.875,14.072-30.942c1.844-15.667,7.395-60.852,7.395-60.852s40.023-46.844,74.009-86.3c32.812-37.9,24.2-76.756,23.242-79.974,0,0,11.367-15.289,14.2-19.18a.388.388,0,0,0,.018-.449" transform="translate(-1074.491 -139.142)" fill="none" stroke="#040405" stroke-miterlimit="10" stroke-width="1"/>
        </g>
      </g>
    </g>
    <path id="Path_17095" data-name="Path 17095" d="M3.12,31h8.541c6.435,0,12.714-4.095,12.714-13.65S18.1,3.7,11.661,3.7H3.12Zm5.07-4.68V8.38h1.872c4.368,0,9.165,1.716,9.165,8.97s-4.8,8.97-9.165,8.97ZM31.317,8.809a3.056,3.056,0,0,0,3.12-3.12,3.12,3.12,0,1,0-6.24,0A3.056,3.056,0,0,0,31.317,8.809ZM28.9,31h4.836V11.344H28.9Zm14.742,0h4.368l6.669-19.656H49.8L45.825,25.033,41.847,11.344H36.972ZM74.958,20.743c0-4.29-2.613-9.711-9.165-9.711-6.747,0-9.438,5.5-9.438,10.14s2.691,10.14,9.438,10.14c4.758,0,7.41-2.262,8.931-5.733l-3.9-1.443c-1.17,2.028-2.535,3.042-4.758,3.042-2.457,0-4.251-1.443-4.68-4.446H74.958ZM61.5,18.91c.624-2.457,2.223-3.744,4.29-3.744,2.574,0,3.783,1.794,4.212,3.744ZM79.326,31h4.836V24.019c0-6.357,2.457-8.658,5.265-8.658a3.745,3.745,0,0,1,2.028.546l.9-4.485a8,8,0,0,0-2.379-.39,6.852,6.852,0,0,0-5.811,3.51v-3.2H79.326Zm21.918.312c3.9,0,6.708-2.5,6.708-6.357,0-2.925-1.989-4.524-4.8-5.538-3.315-1.209-4.017-1.911-4.017-2.769,0-.936.936-1.482,1.911-1.482a3.634,3.634,0,0,1,3.159,1.716l2.886-2.652a6.972,6.972,0,0,0-6.162-3.2c-3.627,0-6.2,2.457-6.2,5.5s1.95,4.68,4.68,5.772c2.067.819,4.056,1.638,4.056,2.964a2,2,0,0,1-2.262,1.911c-1.911,0-3.2-1.326-3.9-3.237l-3.861,2.067A7.8,7.8,0,0,0,101.244,31.312Zm27.768-10.569c0-4.29-2.613-9.711-9.165-9.711-6.747,0-9.438,5.5-9.438,10.14s2.691,10.14,9.438,10.14c4.758,0,7.41-2.262,8.931-5.733l-3.9-1.443c-1.17,2.028-2.535,3.042-4.758,3.042-2.457,0-4.251-1.443-4.68-4.446h13.572ZM115.557,18.91c.624-2.457,2.223-3.744,4.29-3.744,2.574,0,3.783,1.794,4.212,3.744ZM3.12,83H13.3c5.577,0,9.009-2.925,9.009-8.229,0-3.471-1.521-5.616-4.095-6.669A5.465,5.465,0,0,0,20.9,63.071c0-4.953-3.159-7.371-7.8-7.371H3.12ZM8.19,66.308V60.38h4.524c2.145,0,3.315.741,3.315,2.964s-1.17,2.964-3.2,2.964Zm0,12.012V70.988h4.641c3.159,0,4.407,1.326,4.407,3.666S15.99,78.32,12.831,78.32Zm27.534,4.992c6.318,0,9.984-4.446,9.984-10.14s-3.666-10.14-9.984-10.14-9.984,4.446-9.984,10.14S29.406,83.312,35.724,83.312Zm0-4.134c-3.12,0-4.914-2.769-4.914-6.006s1.794-6.006,4.914-6.006,4.914,2.769,4.914,6.006S38.844,79.178,35.724,79.178ZM50.076,83h4.836V55.388H50.076Zm17.784.312c2.808,0,4.6-1.326,5.148-2.34V83h4.836V55.388H73.008v9.75a6.691,6.691,0,0,0-5.148-2.106c-5.538,0-8.58,4.1-8.58,10.14S62.322,83.312,67.86,83.312Zm1.053-4.134c-2.535,0-4.563-2.106-4.563-6.006s2.028-6.006,4.563-6.006,4.524,2.106,4.524,6.006S71.448,79.178,68.913,79.178ZM14.391,135.312a7.539,7.539,0,0,0,6.63-3.237L21.45,135H25.7V121.233H15.717v4.212h5.07a5.779,5.779,0,0,1-6.123,5.187c-4.251,0-7.722-2.73-7.722-9.282,0-6.357,3.471-9.282,7.839-9.282,3.315,0,5.421,2.028,6.708,5.148l4.641-1.209a11.212,11.212,0,0,0-11.349-8.619c-6.747,0-12.987,4.641-12.987,13.962S7.8,135.312,14.391,135.312ZM31.122,135h4.836V107.388H31.122Zm19.188.312c6.318,0,9.984-4.446,9.984-10.14s-3.666-10.14-9.984-10.14-9.984,4.446-9.984,10.14S43.992,135.312,50.31,135.312Zm0-4.134c-3.12,0-4.914-2.769-4.914-6.006s1.794-6.006,4.914-6.006,4.914,2.769,4.914,6.006S53.43,131.178,50.31,131.178Zm23.946,4.134c5.928,0,8.97-4.1,8.97-10.14s-3.042-10.14-8.97-10.14a6.429,6.429,0,0,0-4.758,2.106v-9.75H64.662V135H69.5v-2.028A5.579,5.579,0,0,0,74.256,135.312Zm-.663-4.134c-2.535,0-4.524-2.106-4.524-6.006s1.989-6.006,4.524-6.006,4.563,2.106,4.563,6.006S76.128,131.178,73.593,131.178Zm18.72,4.134a7.327,7.327,0,0,0,6.045-2.808l.507,2.5h3.978V123.261c0-5.5-3.081-8.229-8.268-8.229-3.939,0-6.864,2.223-7.488,5.46l4.1.936a3.3,3.3,0,0,1,3.393-2.262c1.794,0,3.432.819,3.432,2.886v.858H94.575c-5.031,0-8.229,2.535-8.229,6.435A5.586,5.586,0,0,0,92.313,135.312Zm1.287-4.134a1.967,1.967,0,0,1-2.184-1.911c0-1.755,1.287-2.535,3.354-2.535h3.237v.39A4.2,4.2,0,0,1,93.6,131.178ZM107.913,135h4.836V107.388h-4.836ZM8.541,187h5.07V164.38h7.605V159.7H.936v4.68h7.6ZM27.3,164.809a3.12,3.12,0,1,0-3.12-3.12A3.056,3.056,0,0,0,27.3,164.809ZM24.882,187h4.836V167.344H24.882Zm10.14,0h4.836v-7.215c0-5.85,1.872-8.619,4.251-8.619,1.443,0,2.418.741,2.418,2.73V187h4.836v-7.644c0-5.538,1.911-8.19,4.251-8.19,1.443,0,2.418.741,2.418,2.73V187h4.836V173.077c0-3.783-2.184-6.045-5.85-6.045-2.418,0-4.6,1.521-6.006,4.056a5.432,5.432,0,0,0-5.5-4.056c-2.535,0-4.212,1.287-5.655,3.471v-3.159H35.022Zm50.817-10.257c0-4.29-2.613-9.711-9.165-9.711-6.747,0-9.438,5.5-9.438,10.14s2.691,10.14,9.438,10.14c4.758,0,7.41-2.262,8.931-5.733l-3.9-1.443c-1.17,2.028-2.535,3.042-4.758,3.042-2.457,0-4.251-1.443-4.68-4.446H85.839ZM72.384,174.91c.624-2.457,2.223-3.744,4.29-3.744,2.574,0,3.783,1.794,4.212,3.744ZM90.207,187h4.836V159.388H90.207Zm27.807-10.257c0-4.29-2.613-9.711-9.165-9.711-6.747,0-9.438,5.5-9.438,10.14s2.691,10.14,9.438,10.14c4.758,0,7.41-2.262,8.931-5.733l-3.9-1.443c-1.17,2.028-2.535,3.042-4.758,3.042-2.457,0-4.251-1.443-4.68-4.446h13.572Zm-13.455-1.833c.624-2.457,2.223-3.744,4.29-3.744,2.574,0,3.783,1.794,4.212,3.744Zm23.79,12.4c3.9,0,6.708-2.5,6.708-6.357,0-2.925-1.989-4.524-4.8-5.538-3.315-1.209-4.017-1.911-4.017-2.769,0-.936.936-1.482,1.911-1.482a3.634,3.634,0,0,1,3.159,1.716l2.886-2.652a6.973,6.973,0,0,0-6.162-3.2c-3.627,0-6.2,2.457-6.2,5.5s1.95,4.68,4.68,5.772c2.067.819,4.056,1.638,4.056,2.964a2,2,0,0,1-2.262,1.911c-1.911,0-3.2-1.326-3.9-3.237l-3.861,2.067A7.8,7.8,0,0,0,128.349,187.312Zm16.848,0c3.9,0,6.708-2.5,6.708-6.357,0-2.925-1.989-4.524-4.8-5.538-3.315-1.209-4.017-1.911-4.017-2.769,0-.936.936-1.482,1.911-1.482a3.634,3.634,0,0,1,3.159,1.716l2.886-2.652a6.972,6.972,0,0,0-6.162-3.2c-3.627,0-6.2,2.457-6.2,5.5s1.95,4.68,4.68,5.772c2.067.819,4.056,1.638,4.056,2.964a2,2,0,0,1-2.262,1.911c-1.911,0-3.2-1.326-3.9-3.237l-3.861,2.067A7.8,7.8,0,0,0,145.2,187.312ZM3.12,239H8.19V227.222h2.652L18.174,239h5.655l-7.566-12.207c3.315-1.014,5.109-3.744,5.109-7.332,0-4.524-2.847-7.761-8.307-7.761H3.12Zm5.07-16.458V216.38H13.1c1.833,0,3.2.858,3.2,3.081s-1.365,3.081-3.2,3.081Zm35.568,6.2c0-4.29-2.613-9.711-9.165-9.711-6.747,0-9.438,5.5-9.438,10.14s2.691,10.14,9.438,10.14c4.758,0,7.41-2.262,8.931-5.733l-3.9-1.443c-1.17,2.028-2.535,3.042-4.758,3.042-2.457,0-4.251-1.443-4.68-4.446H43.758ZM30.3,226.91c.624-2.457,2.223-3.744,4.29-3.744,2.574,0,3.783,1.794,4.212,3.744Zm23.79,12.4c3.9,0,6.708-2.5,6.708-6.357,0-2.925-1.989-4.524-4.8-5.538-3.315-1.209-4.017-1.911-4.017-2.769,0-.936.936-1.482,1.911-1.482a3.634,3.634,0,0,1,3.159,1.716l2.886-2.652a6.972,6.972,0,0,0-6.162-3.2c-3.627,0-6.2,2.457-6.2,5.5s1.95,4.68,4.68,5.772c2.067.819,4.056,1.638,4.056,2.964a2,2,0,0,1-2.262,1.911c-1.911,0-3.2-1.326-3.9-3.237l-3.861,2.067A7.8,7.8,0,0,0,54.093,239.312Zm10.452,7.644h4.836v-9.75a6.429,6.429,0,0,0,4.758,2.106c5.928,0,8.97-4.1,8.97-10.14s-3.042-10.14-8.97-10.14a5.579,5.579,0,0,0-4.758,2.34v-2.028H64.545Zm8.931-11.778c-2.535,0-4.524-2.106-4.524-6.006s1.989-6.006,4.524-6.006,4.563,2.106,4.563,6.006S76.011,235.178,73.476,235.178Zm22.893,4.134c6.318,0,9.984-4.446,9.984-10.14s-3.666-10.14-9.984-10.14-9.984,4.446-9.984,10.14S90.051,239.312,96.369,239.312Zm0-4.134c-3.12,0-4.914-2.769-4.914-6.006s1.794-6.006,4.914-6.006,4.914,2.769,4.914,6.006S99.489,235.178,96.369,235.178ZM110.721,239h4.836v-7.839c0-5.187,2.145-7.995,4.485-7.995,1.638,0,2.808.9,2.808,3.237V239h4.836V224.96c0-3.939-2.535-5.928-6.045-5.928a7.437,7.437,0,0,0-6.084,3.471v-3.159h-4.836Zm28.509.312c3.9,0,6.708-2.5,6.708-6.357,0-2.925-1.989-4.524-4.8-5.538-3.315-1.209-4.017-1.911-4.017-2.769,0-.936.936-1.482,1.911-1.482a3.634,3.634,0,0,1,3.159,1.716l2.886-2.652a6.972,6.972,0,0,0-6.162-3.2c-3.627,0-6.2,2.457-6.2,5.5s1.95,4.68,4.68,5.772c2.067.819,4.056,1.638,4.056,2.964a2,2,0,0,1-2.262,1.911c-1.911,0-3.2-1.326-3.9-3.237l-3.861,2.067A7.8,7.8,0,0,0,139.23,239.312Zm13.26-22.5a3.12,3.12,0,1,0-3.12-3.12A3.056,3.056,0,0,0,152.49,216.809ZM150.072,239h4.836V219.344h-4.836Zm14.742,0h4.368l6.669-19.656h-4.875L167,233.033l-3.978-13.689h-4.875Zm31.317-10.257c0-4.29-2.613-9.711-9.165-9.711-6.747,0-9.438,5.5-9.438,10.14s2.691,10.14,9.438,10.14c4.758,0,7.41-2.262,8.931-5.733l-3.9-1.443c-1.17,2.028-2.535,3.042-4.758,3.042-2.457,0-4.251-1.443-4.68-4.446h13.572Zm-13.455-1.833c.624-2.457,2.223-3.744,4.29-3.744,2.574,0,3.783,1.794,4.212,3.744Z" transform="translate(960 12048)" fill="#212322"/>
  </g>
</svg>
