<svg xmlns="http://www.w3.org/2000/svg" width="276.517" height="366.805" viewBox="0 0 276.517 366.805">
  <g id="Group_6797" data-name="Group 6797" transform="translate(0 -1.407)">
    <g id="Group_6785" data-name="Group 6785" transform="translate(40.073 1.407)">
      <path id="Path_17056" data-name="Path 17056" d="M297.873,74.048a.2.2,0,0,0-.207-.087c-5.163.608-11.24,1.279-11.24,1.279A28.474,28.474,0,0,0,264,73.916,30.381,30.381,0,0,0,247.688,87.44l-2.717-.914,1.923-15.89c1.39-11.486-5.167-21.533-12.677-26.34L166.843,1.407c-1.428,3.241-10,43.711,28.311,62.585,19.04,9.362,23.362,11.45,24.174,12.278a3.433,3.433,0,0,1,1.355,2.091s-35.471-11.772-45.14-15.114C143.622,52.272,87.886,33.21,61.465,24.422c0,0,9.2,71.241,93.709,100.527,26.7,9.469,48.39,17.118,48.39,17.118s4.775,1.295,6.876,5.12a11.252,11.252,0,0,1,.194,10.4c-12.448,23.564-55.7,105.508-58.047,109.935a47.443,47.443,0,0,0,17.826-12.424c5.832-6.692,10.32-12.214,20.738-24.31,12.736-14.8,26.406-30.657,26.406-30.657l3.5,34.677s6.808-6.3,8.132-17.913c1.067-9.069,4.274-35.226,4.274-35.226s23.128-27.117,42.768-49.96c18.962-21.937,13.984-44.433,13.43-46.3,0,0,6.57-8.85,8.206-11.1A.227.227,0,0,0,297.873,74.048Zm-21.514,14.8a4.734,4.734,0,1,1,1.15-6.6A4.723,4.723,0,0,1,276.359,88.844Z" transform="translate(-61.465 -1.407)" fill="#212322"/>
    </g>
    <g id="Group_6786" data-name="Group 6786" transform="translate(0 160.195)">
      <path id="Path_17057" data-name="Path 17057" d="M11.509,246.191V272.5H16.67V246.191H28.179v63.78H16.67v-27.1H11.509v27.1H0v-63.78Z" transform="translate(0 -245.39)" fill="#212322"/>
      <path id="Path_17058" data-name="Path 17058" d="M49.523,275.249c0-21.931,5.958-30.287,16.262-30.287s16.262,8.373,16.262,30.287v4.775c0,21.931-5.958,30.287-16.262,30.287s-16.262-8.374-16.262-30.287Zm13.088,21.043c0,2.627,1.273,4.059,3.174,4.059s3.174-1.433,3.174-4.059v-37.7c0-2.626-1.273-4.058-3.174-4.058s-3.174,1.432-3.174,4.058Z" transform="translate(-17.236 -244.962)" fill="#212322"/>
      <path id="Path_17059" data-name="Path 17059" d="M117.459,246.191c9.676,0,18.011,6.378,18.011,19.935v1.6c0,13.558-8.335,19.936-17.858,19.936v22.323h-11.9v-63.78h11.747Zm.169,31.873h.8c3.174,0,5.16-1.842,5.16-6.378v-9.567c0-4.536-1.986-6.378-5.16-6.378h-.8Z" transform="translate(-36.792 -245.39)" fill="#212322"/>
      <path id="Path_17060" data-name="Path 17060" d="M177.284,246.191v10.368H167.76V272.5H176.1v10.369H167.76v16.746h9.523v10.369H155.861v-63.78h21.423Z" transform="translate(-54.246 -245.39)" fill="#212322"/>
      <path id="Path_17061" data-name="Path 17061" d="M0,355.554H21.423v10.368H11.9v15.945h7.928v10.369H11.9v27.1H0Z" transform="translate(0 -283.453)" fill="#212322"/>
      <path id="Path_17062" data-name="Path 17062" d="M34.916,384.638c0-21.931,5.958-30.287,16.262-30.287s16.262,8.373,16.262,30.287v4.775c0,21.931-5.958,30.287-16.262,30.287s-16.262-8.373-16.262-30.287ZM48,405.682c0,2.626,1.273,4.058,3.174,4.058s3.174-1.432,3.174-4.058V367.976c0-2.626-1.273-4.058-3.174-4.058S48,365.35,48,367.976Z" transform="translate(-12.152 -283.034)" fill="#212322"/>
      <path id="Path_17063" data-name="Path 17063" d="M102.35,355.554c10,0,17.62,7.008,17.62,19.372,0,7.964-2.377,12.432-6.739,16.747l5.958,26.859v.8H107.68L103.164,395.1h-1.188l.56,24.233h-11.9V355.554Zm.153,31.1h.391c2.784,0,5.16-2.148,5.16-6.377v-8.766c0-4.229-2.376-6.378-5.16-6.378H102.5Z" transform="translate(-31.545 -283.453)" fill="#212322"/>
      <path id="Path_17064" data-name="Path 17064" d="M21.423,464.934v50.614c0,7.965-3.564,13.558-11.9,13.558A57.367,57.367,0,0,1,0,528.3l.8-9.959H6.671c2.309,0,3.259-1.041,3.259-3.274V475.285H0V464.917H21.423Z" transform="translate(0 -321.515)" fill="#212322"/>
      <path id="Path_17065" data-name="Path 17065" d="M68.163,464.943v47.835c0,10.368-5.551,16.746-14.684,16.746S38.8,523.146,38.8,512.778V464.943H50.7v50.938c0,2.626.866,4.059,2.784,4.059,1.9,0,2.784-1.433,2.784-4.059V464.943Z" transform="translate(-13.503 -321.524)" fill="#212322"/>
      <path id="Path_17066" data-name="Path 17066" d="M99.271,506.365a9.468,9.468,0,0,1,.475,3.581v5.9c0,2.473,1.1,4.058,2.936,4.058,1.9,0,3.022-1.6,3.022-4.382,0-5.1-3.327-9.806-6.824-14.427l-2.309-3.035c-5.4-7.094-7.622-11.8-7.622-18.81,0-9.158,5.483-15.536,14.446-15.536,9.133,0,14.123,6.378,14.123,16.508a15.819,15.819,0,0,0,.475,4.621v.8H107.284a10.714,10.714,0,0,1-.476-3.581v-5.337c0-2.559-1.188-3.821-2.852-3.821-1.749,0-3.09,1.279-3.09,4.468,0,4.707,2.462,8.05,5.959,12.518l2.376,3.036c5.483,6.941,8.419,12.431,8.419,20.242,0,9.721-5.483,15.945-14.123,15.945-9.676,0-14.6-6.293-14.6-17.463a14.409,14.409,0,0,0-.475-4.468v-.8H99.271Z" transform="translate(-30.775 -321.096)" fill="#212322"/>
      <path id="Path_17067" data-name="Path 17067" d="M163.557,464.943v10.368h-7.928v53.411h-11.9V475.311h-7.945V464.943Z" transform="translate(-47.259 -321.524)" fill="#212322"/>
      <path id="Path_17068" data-name="Path 17068" d="M195.6,464.943v63.78h-11.9v-63.78Z" transform="translate(-63.933 -321.524)" fill="#212322"/>
      <path id="Path_17069" data-name="Path 17069" d="M223.788,463.74c9.524,0,14.6,7.571,14.6,19.526a20.328,20.328,0,0,0,.391,4.383v.8h-11.9a13.208,13.208,0,0,1-.391-3.581v-7.9c0-2.234-.951-3.667-2.852-3.667s-3.09,1.432-3.09,4.058v37.705c0,2.626,1.189,4.058,3.09,4.058s2.852-1.432,2.852-3.667v-7.9a13.028,13.028,0,0,1,.391-3.581h11.9v.8a18.25,18.25,0,0,0-.391,4.792c0,11.954-5.075,19.526-14.6,19.526-10.321,0-16.347-8.373-16.347-30.287v-4.775C207.441,472.1,213.468,463.74,223.788,463.74Z" transform="translate(-72.198 -321.106)" fill="#212322"/>
      <path id="Path_17070" data-name="Path 17070" d="M281.98,464.943v10.368h-9.523v15.945h8.335v10.369h-8.335v16.746h9.523V528.74H260.557V464.96H281.98Z" transform="translate(-90.684 -321.524)" fill="#212322"/>
    </g>
  </g>
</svg>
