<svg xmlns="http://www.w3.org/2000/svg" width="328.893" height="370.16" viewBox="0 0 328.893 370.16">
  <g id="Group_6794" data-name="Group 6794" transform="translate(-24.812 -1.407)">
    <g id="Group_6785" data-name="Group 6785" transform="translate(24.812 1.407)">
      <path id="Path_17056" data-name="Path 17056" d="M390.308,102.45a.284.284,0,0,0-.288-.121c-7.182.845-15.634,1.779-15.634,1.779a39.607,39.607,0,0,0-31.192-1.841A42.26,42.26,0,0,0,320.5,121.079l-3.779-1.271,2.675-22.1c1.933-15.976-7.187-29.952-17.634-36.639L208.046,1.407c-1.986,4.508-13.917,60.8,39.38,87.056,26.484,13.023,32.5,15.927,33.626,17.079a4.776,4.776,0,0,1,1.885,2.908S233.6,92.076,220.148,87.428C175.746,72.159,98.216,45.645,61.465,33.421c0,0,12.8,99.1,130.349,139.833,37.141,13.171,67.31,23.811,67.31,23.811s6.642,1.8,9.565,7.122c4.2,7.328.269,14.462.269,14.462-17.315,32.778-77.484,146.761-80.743,152.92a65.993,65.993,0,0,0,24.8-17.281c8.112-9.308,14.355-16.989,28.846-33.815,17.716-20.591,36.73-42.644,36.73-42.644l4.863,48.236s9.47-8.758,11.311-24.916c1.484-12.616,5.945-49,5.945-49s32.171-37.72,59.491-69.495c26.375-30.514,19.451-61.806,18.682-64.4,0,0,9.139-12.311,11.415-15.444A.315.315,0,0,0,390.308,102.45Zm-29.926,20.581a6.584,6.584,0,1,1,1.6-9.18A6.57,6.57,0,0,1,360.382,123.031Z" transform="translate(-61.465 -1.407)" fill="#d6001c"/>
    </g>
  </g>
</svg>
